<svg xmlns="http://www.w3.org/2000/svg" xmlns:xlink="http://www.w3.org/1999/xlink" width="1366" zoomAndPan="magnify" viewBox="0 0 1024.5 576" height="768" preserveAspectRatio="xMidYMid meet" version="1.0"><defs><g/><clipPath id="4f7b65f979"><path d="M 0 0.140625 L 1024 0.140625 L 1024 575.859375 L 0 575.859375 Z M 0 0.140625 " clip-rule="nonzero"/></clipPath><linearGradient x1="0" gradientTransform="matrix(0.749634, 0, 0, 0.749634, 0, 0.140508)" y1="384" x2="1365.999943" gradientUnits="userSpaceOnUse" y2="384" id="841c6c0482"><stop stop-opacity="1" stop-color="rgb(80.39856%, 100%, 84.698486%)" offset="0"/><stop stop-opacity="1" stop-color="rgb(80.311584%, 99.891663%, 84.757996%)" offset="0.0078125"/><stop stop-opacity="1" stop-color="rgb(80.136108%, 99.676514%, 84.87854%)" offset="0.015625"/><stop stop-opacity="1" stop-color="rgb(79.960632%, 99.461365%, 84.997559%)" offset="0.0234375"/><stop stop-opacity="1" stop-color="rgb(79.786682%, 99.246216%, 85.116577%)" offset="0.03125"/><stop stop-opacity="1" stop-color="rgb(79.611206%, 99.032593%, 85.237122%)" offset="0.0390625"/><stop stop-opacity="1" stop-color="rgb(79.43573%, 98.817444%, 85.35614%)" offset="0.046875"/><stop stop-opacity="1" stop-color="rgb(79.26178%, 98.602295%, 85.476685%)" offset="0.0546875"/><stop stop-opacity="1" stop-color="rgb(79.086304%, 98.387146%, 85.595703%)" offset="0.0625"/><stop stop-opacity="1" stop-color="rgb(78.910828%, 98.171997%, 85.714722%)" offset="0.0703125"/><stop stop-opacity="1" stop-color="rgb(78.736877%, 97.958374%, 85.835266%)" offset="0.078125"/><stop stop-opacity="1" stop-color="rgb(78.561401%, 97.743225%, 85.954285%)" offset="0.0859375"/><stop stop-opacity="1" stop-color="rgb(78.385925%, 97.528076%, 86.073303%)" offset="0.09375"/><stop stop-opacity="1" stop-color="rgb(78.211975%, 97.312927%, 86.193848%)" offset="0.101562"/><stop stop-opacity="1" stop-color="rgb(78.036499%, 97.097778%, 86.312866%)" offset="0.109375"/><stop stop-opacity="1" stop-color="rgb(77.861023%, 96.884155%, 86.431885%)" offset="0.117188"/><stop stop-opacity="1" stop-color="rgb(77.685547%, 96.669006%, 86.552429%)" offset="0.125"/><stop stop-opacity="1" stop-color="rgb(77.511597%, 96.453857%, 86.671448%)" offset="0.132812"/><stop stop-opacity="1" stop-color="rgb(77.336121%, 96.238708%, 86.790466%)" offset="0.140625"/><stop stop-opacity="1" stop-color="rgb(77.160645%, 96.02356%, 86.911011%)" offset="0.148438"/><stop stop-opacity="1" stop-color="rgb(76.986694%, 95.809937%, 87.030029%)" offset="0.15625"/><stop stop-opacity="1" stop-color="rgb(76.811218%, 95.594788%, 87.149048%)" offset="0.164062"/><stop stop-opacity="1" stop-color="rgb(76.635742%, 95.379639%, 87.269592%)" offset="0.171875"/><stop stop-opacity="1" stop-color="rgb(76.461792%, 95.16449%, 87.388611%)" offset="0.179688"/><stop stop-opacity="1" stop-color="rgb(76.286316%, 94.949341%, 87.507629%)" offset="0.1875"/><stop stop-opacity="1" stop-color="rgb(76.11084%, 94.735718%, 87.628174%)" offset="0.195312"/><stop stop-opacity="1" stop-color="rgb(75.93689%, 94.520569%, 87.747192%)" offset="0.203125"/><stop stop-opacity="1" stop-color="rgb(75.761414%, 94.30542%, 87.866211%)" offset="0.210938"/><stop stop-opacity="1" stop-color="rgb(75.585938%, 94.090271%, 87.986755%)" offset="0.21875"/><stop stop-opacity="1" stop-color="rgb(75.410461%, 93.875122%, 88.105774%)" offset="0.226562"/><stop stop-opacity="1" stop-color="rgb(75.236511%, 93.661499%, 88.224792%)" offset="0.234375"/><stop stop-opacity="1" stop-color="rgb(75.061035%, 93.44635%, 88.345337%)" offset="0.242188"/><stop stop-opacity="1" stop-color="rgb(74.885559%, 93.231201%, 88.464355%)" offset="0.25"/><stop stop-opacity="1" stop-color="rgb(74.711609%, 93.016052%, 88.583374%)" offset="0.257812"/><stop stop-opacity="1" stop-color="rgb(74.536133%, 92.800903%, 88.703918%)" offset="0.265625"/><stop stop-opacity="1" stop-color="rgb(74.360657%, 92.58728%, 88.822937%)" offset="0.273438"/><stop stop-opacity="1" stop-color="rgb(74.186707%, 92.372131%, 88.941956%)" offset="0.28125"/><stop stop-opacity="1" stop-color="rgb(74.01123%, 92.156982%, 89.0625%)" offset="0.289062"/><stop stop-opacity="1" stop-color="rgb(73.835754%, 91.941833%, 89.181519%)" offset="0.296875"/><stop stop-opacity="1" stop-color="rgb(73.661804%, 91.726685%, 89.300537%)" offset="0.304688"/><stop stop-opacity="1" stop-color="rgb(73.486328%, 91.513062%, 89.421082%)" offset="0.3125"/><stop stop-opacity="1" stop-color="rgb(73.310852%, 91.297913%, 89.5401%)" offset="0.320312"/><stop stop-opacity="1" stop-color="rgb(73.136902%, 91.082764%, 89.659119%)" offset="0.328125"/><stop stop-opacity="1" stop-color="rgb(72.961426%, 90.867615%, 89.779663%)" offset="0.335938"/><stop stop-opacity="1" stop-color="rgb(72.78595%, 90.652466%, 89.898682%)" offset="0.34375"/><stop stop-opacity="1" stop-color="rgb(72.610474%, 90.438843%, 90.0177%)" offset="0.351562"/><stop stop-opacity="1" stop-color="rgb(72.436523%, 90.223694%, 90.138245%)" offset="0.359375"/><stop stop-opacity="1" stop-color="rgb(72.261047%, 90.008545%, 90.257263%)" offset="0.367188"/><stop stop-opacity="1" stop-color="rgb(72.085571%, 89.793396%, 90.376282%)" offset="0.375"/><stop stop-opacity="1" stop-color="rgb(71.911621%, 89.578247%, 90.496826%)" offset="0.382812"/><stop stop-opacity="1" stop-color="rgb(71.736145%, 89.364624%, 90.615845%)" offset="0.390625"/><stop stop-opacity="1" stop-color="rgb(71.560669%, 89.149475%, 90.734863%)" offset="0.398438"/><stop stop-opacity="1" stop-color="rgb(71.386719%, 88.934326%, 90.855408%)" offset="0.40625"/><stop stop-opacity="1" stop-color="rgb(71.211243%, 88.719177%, 90.974426%)" offset="0.414062"/><stop stop-opacity="1" stop-color="rgb(71.035767%, 88.504028%, 91.093445%)" offset="0.421875"/><stop stop-opacity="1" stop-color="rgb(70.861816%, 88.290405%, 91.213989%)" offset="0.429688"/><stop stop-opacity="1" stop-color="rgb(70.68634%, 88.075256%, 91.333008%)" offset="0.4375"/><stop stop-opacity="1" stop-color="rgb(70.510864%, 87.860107%, 91.452026%)" offset="0.445312"/><stop stop-opacity="1" stop-color="rgb(70.336914%, 87.644958%, 91.572571%)" offset="0.453125"/><stop stop-opacity="1" stop-color="rgb(70.161438%, 87.42981%, 91.691589%)" offset="0.460938"/><stop stop-opacity="1" stop-color="rgb(69.985962%, 87.216187%, 91.810608%)" offset="0.46875"/><stop stop-opacity="1" stop-color="rgb(69.810486%, 87.001038%, 91.931152%)" offset="0.476562"/><stop stop-opacity="1" stop-color="rgb(69.636536%, 86.785889%, 92.050171%)" offset="0.484375"/><stop stop-opacity="1" stop-color="rgb(69.46106%, 86.57074%, 92.169189%)" offset="0.492188"/><stop stop-opacity="1" stop-color="rgb(69.285583%, 86.355591%, 92.289734%)" offset="0.5"/><stop stop-opacity="1" stop-color="rgb(69.111633%, 86.141968%, 92.408752%)" offset="0.507812"/><stop stop-opacity="1" stop-color="rgb(68.936157%, 85.926819%, 92.527771%)" offset="0.515625"/><stop stop-opacity="1" stop-color="rgb(68.760681%, 85.71167%, 92.648315%)" offset="0.523438"/><stop stop-opacity="1" stop-color="rgb(68.586731%, 85.496521%, 92.767334%)" offset="0.53125"/><stop stop-opacity="1" stop-color="rgb(68.411255%, 85.281372%, 92.886353%)" offset="0.539062"/><stop stop-opacity="1" stop-color="rgb(68.235779%, 85.067749%, 93.006897%)" offset="0.546875"/><stop stop-opacity="1" stop-color="rgb(68.061829%, 84.8526%, 93.125916%)" offset="0.554688"/><stop stop-opacity="1" stop-color="rgb(67.886353%, 84.637451%, 93.244934%)" offset="0.5625"/><stop stop-opacity="1" stop-color="rgb(67.710876%, 84.422302%, 93.365479%)" offset="0.570312"/><stop stop-opacity="1" stop-color="rgb(67.536926%, 84.207153%, 93.484497%)" offset="0.578125"/><stop stop-opacity="1" stop-color="rgb(67.36145%, 83.99353%, 93.603516%)" offset="0.585938"/><stop stop-opacity="1" stop-color="rgb(67.185974%, 83.778381%, 93.72406%)" offset="0.59375"/><stop stop-opacity="1" stop-color="rgb(67.010498%, 83.563232%, 93.843079%)" offset="0.601562"/><stop stop-opacity="1" stop-color="rgb(66.836548%, 83.348083%, 93.962097%)" offset="0.609375"/><stop stop-opacity="1" stop-color="rgb(66.661072%, 83.132935%, 94.082642%)" offset="0.617188"/><stop stop-opacity="1" stop-color="rgb(66.485596%, 82.919312%, 94.20166%)" offset="0.625"/><stop stop-opacity="1" stop-color="rgb(66.311646%, 82.704163%, 94.320679%)" offset="0.632812"/><stop stop-opacity="1" stop-color="rgb(66.136169%, 82.489014%, 94.441223%)" offset="0.640625"/><stop stop-opacity="1" stop-color="rgb(65.960693%, 82.273865%, 94.560242%)" offset="0.648438"/><stop stop-opacity="1" stop-color="rgb(65.786743%, 82.058716%, 94.67926%)" offset="0.65625"/><stop stop-opacity="1" stop-color="rgb(65.611267%, 81.845093%, 94.799805%)" offset="0.664062"/><stop stop-opacity="1" stop-color="rgb(65.435791%, 81.629944%, 94.918823%)" offset="0.671875"/><stop stop-opacity="1" stop-color="rgb(65.261841%, 81.414795%, 95.037842%)" offset="0.679688"/><stop stop-opacity="1" stop-color="rgb(65.086365%, 81.199646%, 95.158386%)" offset="0.6875"/><stop stop-opacity="1" stop-color="rgb(64.910889%, 80.984497%, 95.277405%)" offset="0.695312"/><stop stop-opacity="1" stop-color="rgb(64.736938%, 80.770874%, 95.396423%)" offset="0.703125"/><stop stop-opacity="1" stop-color="rgb(64.561462%, 80.555725%, 95.516968%)" offset="0.710938"/><stop stop-opacity="1" stop-color="rgb(64.385986%, 80.340576%, 95.635986%)" offset="0.71875"/><stop stop-opacity="1" stop-color="rgb(64.21051%, 80.125427%, 95.755005%)" offset="0.726562"/><stop stop-opacity="1" stop-color="rgb(64.03656%, 79.910278%, 95.875549%)" offset="0.734375"/><stop stop-opacity="1" stop-color="rgb(63.861084%, 79.696655%, 95.994568%)" offset="0.742188"/><stop stop-opacity="1" stop-color="rgb(63.685608%, 79.481506%, 96.113586%)" offset="0.75"/><stop stop-opacity="1" stop-color="rgb(63.511658%, 79.266357%, 96.234131%)" offset="0.757812"/><stop stop-opacity="1" stop-color="rgb(63.336182%, 79.051208%, 96.353149%)" offset="0.765625"/><stop stop-opacity="1" stop-color="rgb(63.160706%, 78.83606%, 96.472168%)" offset="0.773438"/><stop stop-opacity="1" stop-color="rgb(62.986755%, 78.622437%, 96.592712%)" offset="0.78125"/><stop stop-opacity="1" stop-color="rgb(62.811279%, 78.407288%, 96.711731%)" offset="0.789062"/><stop stop-opacity="1" stop-color="rgb(62.635803%, 78.192139%, 96.83075%)" offset="0.796875"/><stop stop-opacity="1" stop-color="rgb(62.461853%, 77.97699%, 96.951294%)" offset="0.804688"/><stop stop-opacity="1" stop-color="rgb(62.286377%, 77.761841%, 97.070312%)" offset="0.8125"/><stop stop-opacity="1" stop-color="rgb(62.110901%, 77.548218%, 97.189331%)" offset="0.820312"/><stop stop-opacity="1" stop-color="rgb(61.936951%, 77.333069%, 97.309875%)" offset="0.828125"/><stop stop-opacity="1" stop-color="rgb(61.761475%, 77.11792%, 97.428894%)" offset="0.835938"/><stop stop-opacity="1" stop-color="rgb(61.585999%, 76.902771%, 97.547913%)" offset="0.84375"/><stop stop-opacity="1" stop-color="rgb(61.410522%, 76.687622%, 97.668457%)" offset="0.851562"/><stop stop-opacity="1" stop-color="rgb(61.236572%, 76.473999%, 97.787476%)" offset="0.859375"/><stop stop-opacity="1" stop-color="rgb(61.061096%, 76.25885%, 97.906494%)" offset="0.867188"/><stop stop-opacity="1" stop-color="rgb(60.88562%, 76.043701%, 98.027039%)" offset="0.875"/><stop stop-opacity="1" stop-color="rgb(60.71167%, 75.828552%, 98.146057%)" offset="0.882812"/><stop stop-opacity="1" stop-color="rgb(60.536194%, 75.613403%, 98.265076%)" offset="0.890625"/><stop stop-opacity="1" stop-color="rgb(60.360718%, 75.39978%, 98.38562%)" offset="0.898438"/><stop stop-opacity="1" stop-color="rgb(60.186768%, 75.184631%, 98.504639%)" offset="0.90625"/><stop stop-opacity="1" stop-color="rgb(60.011292%, 74.969482%, 98.623657%)" offset="0.914062"/><stop stop-opacity="1" stop-color="rgb(59.835815%, 74.754333%, 98.744202%)" offset="0.921875"/><stop stop-opacity="1" stop-color="rgb(59.661865%, 74.539185%, 98.86322%)" offset="0.929688"/><stop stop-opacity="1" stop-color="rgb(59.486389%, 74.325562%, 98.982239%)" offset="0.9375"/><stop stop-opacity="1" stop-color="rgb(59.310913%, 74.110413%, 99.102783%)" offset="0.945312"/><stop stop-opacity="1" stop-color="rgb(59.136963%, 73.895264%, 99.221802%)" offset="0.953125"/><stop stop-opacity="1" stop-color="rgb(58.961487%, 73.680115%, 99.34082%)" offset="0.960938"/><stop stop-opacity="1" stop-color="rgb(58.786011%, 73.464966%, 99.461365%)" offset="0.96875"/><stop stop-opacity="1" stop-color="rgb(58.610535%, 73.251343%, 99.580383%)" offset="0.976562"/><stop stop-opacity="1" stop-color="rgb(58.436584%, 73.036194%, 99.699402%)" offset="0.984375"/><stop stop-opacity="1" stop-color="rgb(58.261108%, 72.821045%, 99.819946%)" offset="0.992188"/><stop stop-opacity="1" stop-color="rgb(58.085632%, 72.605896%, 99.938965%)" offset="1"/></linearGradient><clipPath id="a82070a909"><path d="M 921 59.960938 L 945 59.960938 L 945 76 L 921 76 Z M 921 59.960938 " clip-rule="nonzero"/></clipPath><clipPath id="7da666a3cf"><path d="M 946 75 L 952.5 75 L 952.5 86 L 946 86 Z M 946 75 " clip-rule="nonzero"/></clipPath><clipPath id="cfac15a21d"><path d="M 859.546875 86 L 865 86 L 865 97 L 859.546875 97 Z M 859.546875 86 " clip-rule="nonzero"/></clipPath><clipPath id="4e4c6c2b90"><path d="M 859.546875 74 L 886 74 L 886 105 L 859.546875 105 Z M 859.546875 74 " clip-rule="nonzero"/></clipPath><clipPath id="a01f7770df"><path d="M 868 120 L 943 120 L 943 128.179688 L 868 128.179688 Z M 868 120 " clip-rule="nonzero"/></clipPath></defs><g clip-path="url(#4f7b65f979)"><path fill="#ffffff" d="M 0 0.140625 L 1024 0.140625 L 1024 575.859375 L 0 575.859375 Z M 0 0.140625 " fill-opacity="1" fill-rule="nonzero"/><path fill="url(#841c6c0482)" d="M 0 0.140625 L 0 575.859375 L 1024 575.859375 L 1024 0.140625 Z M 0 0.140625 " fill-rule="nonzero"/></g><g clip-path="url(#a82070a909)"><path fill="#008037" d="M 942.160156 63.824219 C 941.917969 65.503906 941.824219 67.167969 941.867188 68.800781 C 942.621094 68.453125 943.375 68.097656 944.121094 67.734375 C 943.925781 65.277344 944 62.695312 944.394531 59.964844 C 937.269531 66.136719 929.859375 71.480469 921.652344 74.542969 C 921.769531 74.714844 921.867188 74.898438 921.957031 75.089844 C 928.160156 72.777344 936.777344 68.488281 942.160156 63.824219 Z M 942.160156 63.824219 " fill-opacity="1" fill-rule="evenodd"/></g><g clip-path="url(#7da666a3cf)"><path fill="#008037" d="M 948.214844 78.050781 C 947.660156 78.804688 947.144531 79.574219 946.664062 80.355469 C 946.707031 81.980469 946.875 83.597656 947.152344 85.210938 C 948.304688 81.933594 950.007812 78.691406 952.371094 75.484375 C 950.496094 75.90625 948.628906 76.296875 946.765625 76.640625 C 946.71875 77.21875 946.6875 77.792969 946.667969 78.367188 C 947.195312 78.269531 947.710938 78.164062 948.214844 78.050781 Z M 948.214844 78.050781 " fill-opacity="1" fill-rule="evenodd"/></g><path fill="#008037" d="M 920.992188 76.546875 C 920.945312 76.316406 920.882812 76.097656 920.800781 75.886719 C 930.320312 74.6875 939.5625 70.859375 948.707031 66.074219 C 944.105469 77.785156 945.945312 88.171875 950.980469 97.90625 L 924.148438 91.976562 C 924.347656 91.511719 924.503906 91.019531 924.628906 90.515625 L 946.421875 95.15625 C 942.617188 87.804688 941.875 78.472656 945.355469 69.625 C 938.445312 73.238281 928.179688 75.640625 920.992188 76.546875 Z M 920.992188 76.546875 " fill-opacity="1" fill-rule="evenodd"/><path fill="#008037" d="M 942.652344 92.058594 C 942.625 91.976562 942.597656 91.894531 942.570312 91.8125 C 942.597656 91.894531 942.625 91.976562 942.652344 92.058594 Z M 942.652344 92.058594 " fill-opacity="1" fill-rule="evenodd"/><path fill="#008037" d="M 941.34375 75.722656 L 941.390625 75.449219 C 941.375 75.539062 941.359375 75.628906 941.34375 75.722656 Z M 941.34375 75.722656 " fill-opacity="1" fill-rule="evenodd"/><path fill="#008037" d="M 941.503906 74.851562 C 941.519531 74.761719 941.539062 74.671875 941.554688 74.582031 C 941.539062 74.671875 941.519531 74.761719 941.503906 74.851562 Z M 941.503906 74.851562 " fill-opacity="1" fill-rule="evenodd"/><path fill="#008037" d="M 941.558594 74.574219 C 941.574219 74.484375 941.59375 74.394531 941.613281 74.304688 Z M 941.558594 74.574219 " fill-opacity="1" fill-rule="evenodd"/><path fill="#008037" d="M 941.621094 74.269531 C 941.636719 74.191406 941.65625 74.109375 941.671875 74.027344 C 941.65625 74.109375 941.636719 74.191406 941.621094 74.269531 Z M 941.621094 74.269531 " fill-opacity="1" fill-rule="evenodd"/><path fill="#008037" d="M 941.679688 73.992188 C 941.703125 73.902344 941.722656 73.808594 941.742188 73.71875 C 941.722656 73.808594 941.703125 73.902344 941.679688 73.992188 Z M 941.679688 73.992188 " fill-opacity="1" fill-rule="evenodd"/><path fill="#008037" d="M 940.339844 68.214844 C 940.34375 68.636719 940.355469 69.054688 940.375 69.476562 C 939.8125 69.722656 939.246094 69.96875 938.679688 70.207031 C 938.613281 70.175781 938.546875 70.140625 938.484375 70.101562 C 938.230469 69.949219 938.03125 69.734375 937.894531 69.492188 C 936.265625 70.53125 934.546875 71.523438 932.796875 72.449219 C 931.773438 72.796875 930.742188 73.121094 929.707031 73.421875 C 930.859375 72.863281 931.996094 72.28125 933.113281 71.675781 C 935.308594 70.492188 937.460938 69.203125 939.503906 67.78125 L 940.335938 67.207031 Z M 940.339844 68.214844 " fill-opacity="1" fill-rule="evenodd"/><path fill="#008037" d="M 869.90625 73.121094 C 870.015625 74.023438 870.082031 74.925781 870.109375 75.828125 L 870.667969 75.925781 C 870.660156 75.550781 870.644531 75.175781 870.621094 74.804688 C 870.9375 74.789062 871.257812 74.695312 871.546875 74.507812 C 871.820312 74.332031 872.035156 74.097656 872.175781 73.828125 L 880.636719 77.640625 L 882.828125 78.015625 L 869.785156 72.140625 Z M 869.90625 73.121094 " fill-opacity="1" fill-rule="evenodd"/><path fill="#008037" d="M 865.398438 75.019531 C 865.226562 71.988281 864.6875 68.949219 863.867188 65.910156 L 887.449219 76.746094 L 887.726562 76.875 C 887.445312 77.269531 887.203125 77.699219 886.984375 78.144531 L 886.363281 77.867188 L 867.566406 69.398438 C 868.101562 71.382812 868.421875 73.449219 868.507812 75.554688 Z M 865.398438 75.019531 " fill-opacity="1" fill-rule="evenodd"/><g clip-path="url(#cfac15a21d)"><path fill="#008037" d="M 863.398438 93.460938 C 863.894531 92.71875 864.351562 91.960938 864.773438 91.191406 C 864.65625 89.640625 864.429688 88.105469 864.089844 86.582031 C 863.136719 89.757812 861.65625 92.933594 859.546875 96.097656 C 861.316406 95.613281 863.082031 95.15625 864.84375 94.742188 C 864.863281 94.191406 864.867188 93.640625 864.859375 93.09375 C 864.359375 93.207031 863.871094 93.332031 863.398438 93.460938 Z M 863.398438 93.460938 " fill-opacity="1" fill-rule="evenodd"/></g><g clip-path="url(#4e4c6c2b90)"><path fill="#008037" d="M 885.605469 94.445312 L 885.628906 95.164062 C 878.042969 97.105469 870.703125 100.683594 863.464844 104.917969 C 867.332031 93.53125 865.109375 83.699219 859.867188 74.632812 L 885.746094 79.085938 C 885.578125 79.539062 885.453125 80.015625 885.355469 80.503906 L 864.339844 77.054688 C 868.300781 83.902344 869.429688 92.777344 866.507812 101.378906 C 871.804688 98.28125 879.3125 95.867188 885.605469 94.445312 Z M 885.605469 94.445312 " fill-opacity="1" fill-rule="evenodd"/></g><path fill="#008037" d="M 869.222656 97.207031 C 870.261719 91.453125 869.738281 85.480469 867.558594 80.046875 L 867.191406 79.132812 L 885.671875 82.167969 L 885.625 82.683594 C 885.578125 83.164062 885.539062 83.644531 885.488281 84.125 C 885.394531 85.023438 885.351562 85.949219 885.378906 86.847656 C 885.382812 86.96875 885.390625 87.15625 885.40625 87.378906 L 885.476562 89.839844 C 884.617188 88.632812 884.789062 85.488281 884.933594 84.066406 C 884.984375 83.597656 885.023438 83.117188 885.070312 82.632812 L 868.078125 79.839844 L 869.933594 80.144531 C 869.867188 80.441406 869.722656 80.722656 869.5 80.964844 C 869.269531 81.21875 868.984375 81.394531 868.679688 81.488281 C 870.175781 85.945312 870.621094 90.699219 870.0625 95.371094 L 870.085938 95.171875 C 870.585938 95.113281 871.101562 95.261719 871.496094 95.625 C 871.726562 95.832031 871.890625 96.089844 871.984375 96.367188 L 871.808594 96.4375 C 876.210938 94.648438 881.074219 93.230469 885.546875 92.257812 L 885.5625 92.820312 C 882.78125 93.429688 880.015625 94.175781 877.324219 95.039062 C 874.839844 95.835938 872.378906 96.746094 870 97.8125 L 869.035156 98.246094 Z M 869.222656 97.207031 " fill-opacity="1" fill-rule="evenodd"/><path fill="#008037" d="M 868.078125 79.839844 C 868.105469 79.917969 868.136719 79.992188 868.167969 80.070312 C 868.136719 79.992188 868.105469 79.917969 868.078125 79.839844 Z M 868.078125 79.839844 " fill-opacity="1" fill-rule="evenodd"/><path fill="#008037" d="M 870.0625 95.375 L 870.027344 95.640625 C 870.039062 95.550781 870.050781 95.464844 870.0625 95.375 Z M 870.0625 95.375 " fill-opacity="1" fill-rule="evenodd"/><path fill="#008037" d="M 869.949219 96.214844 C 869.9375 96.300781 869.925781 96.386719 869.910156 96.472656 C 869.921875 96.386719 869.9375 96.300781 869.949219 96.214844 Z M 869.949219 96.214844 " fill-opacity="1" fill-rule="evenodd"/><path fill="#008037" d="M 869.910156 96.480469 C 869.894531 96.566406 869.882812 96.652344 869.867188 96.738281 Z M 869.910156 96.480469 " fill-opacity="1" fill-rule="evenodd"/><path fill="#008037" d="M 869.863281 96.773438 C 869.851562 96.851562 869.835938 96.929688 869.824219 97.007812 C 869.835938 96.929688 869.851562 96.851562 869.863281 96.773438 Z M 869.863281 96.773438 " fill-opacity="1" fill-rule="evenodd"/><path fill="#008037" d="M 869.816406 97.039062 C 869.804688 97.128906 869.789062 97.21875 869.769531 97.308594 C 869.789062 97.21875 869.804688 97.128906 869.816406 97.039062 Z M 869.816406 97.039062 " fill-opacity="1" fill-rule="evenodd"/><path fill="#000000" d="M 904.285156 73.050781 L 904.285156 72.894531 C 904.285156 72.355469 904.46875 71.855469 904.78125 71.457031 C 905.210938 70.90625 905.882812 70.550781 906.628906 70.550781 L 909.90625 70.550781 C 911.195312 70.550781 912.25 71.605469 912.25 72.894531 L 912.25 94.640625 C 912.25 94.839844 912.226562 95.027344 912.183594 95.210938 L 904.351562 95.210938 C 904.308594 95.027344 904.285156 94.839844 904.285156 94.640625 L 904.285156 94.488281 C 904.285156 89.25 904.285156 78.304688 904.285156 73.050781 Z M 921.40625 80.605469 L 920.664062 91.867188 C 920.5625 92.019531 920.296875 92.273438 920.203125 92.363281 C 919.742188 92.800781 919.277344 93.21875 918.832031 93.675781 C 918.019531 94.519531 917.144531 95.210938 915.921875 95.210938 L 914.058594 95.210938 C 914.015625 95.164062 913.972656 95.117188 913.933594 95.066406 C 913.625 94.671875 913.4375 94.167969 913.4375 93.628906 L 913.4375 74.304688 C 913.4375 73.761719 913.625 73.261719 913.933594 72.863281 C 914.367188 72.3125 915.035156 71.957031 915.785156 71.957031 L 919.058594 71.957031 C 920.351562 71.957031 921.40625 73.011719 921.40625 74.304688 Z M 903.0625 94.101562 L 903.0625 94.125 C 903.0625 94.515625 902.964844 94.882812 902.796875 95.210938 L 901.710938 95.210938 C 900.898438 95.210938 900.117188 95.492188 899.558594 96.089844 C 899.445312 96.210938 899.347656 96.339844 899.261719 96.46875 L 897.441406 96.46875 C 896.691406 96.46875 896.023438 96.117188 895.59375 95.5625 C 895.28125 95.167969 895.09375 94.667969 895.09375 94.125 L 895.09375 74.800781 C 895.09375 74.257812 895.28125 73.757812 895.59375 73.359375 C 896.023438 72.808594 896.691406 72.453125 897.441406 72.453125 L 900.71875 72.453125 C 902.007812 72.453125 903.0625 73.507812 903.0625 74.800781 Z M 922.039062 90.394531 L 922.625 90.695312 C 922.664062 90.574219 922.699219 90.453125 922.734375 90.332031 L 922.269531 90.230469 L 922.59375 87.953125 C 922.664062 87.449219 922.730469 86.945312 922.808594 86.4375 C 922.9375 85.585938 923.023438 84.714844 923.035156 83.847656 C 923.042969 83.53125 923.027344 82.832031 922.949219 82.355469 L 922.515625 82.199219 L 921.96875 90.527344 Z M 913.714844 104.390625 C 921.859375 104.390625 923 103.148438 926.792969 98.804688 L 921.105469 95.855469 L 919.296875 94.921875 C 918.746094 95.4375 918.152344 95.867188 917.476562 96.132812 L 917.464844 96.136719 L 917.351562 96.175781 L 917.296875 96.195312 L 917.289062 96.199219 L 917.234375 96.21875 L 917.222656 96.21875 L 917.167969 96.238281 L 917.160156 96.238281 L 917.105469 96.257812 L 917.097656 96.257812 L 917.039062 96.273438 L 917.03125 96.277344 L 917.007812 96.28125 L 916.96875 96.292969 L 916.910156 96.308594 L 916.902344 96.308594 L 916.839844 96.324219 L 916.835938 96.324219 L 916.804688 96.332031 L 916.699219 96.351562 L 916.636719 96.363281 L 916.632812 96.363281 L 916.570312 96.371094 L 916.5625 96.375 L 916.5 96.382812 L 916.496094 96.382812 L 916.429688 96.390625 L 916.425781 96.390625 L 916.359375 96.398438 L 916.355469 96.398438 L 916.285156 96.40625 L 916.210938 96.410156 L 916.070312 96.417969 L 915.996094 96.417969 L 915.921875 96.421875 C 915.921875 96.421875 911.355469 96.421875 910.960938 96.421875 L 905.191406 96.421875 C 903.375 96.421875 899.679688 95.621094 900.105469 98.546875 C 900.28125 99.78125 901.035156 101.242188 901.308594 102.042969 C 901.753906 103.332031 903.175781 104.386719 904.464844 104.386719 L 913.714844 104.386719 Z M 915.996094 96.421875 Z M 916.066406 96.417969 Z M 916.214844 96.414062 Z M 917.347656 96.175781 Z M 886.269531 91.898438 L 886.269531 79.609375 L 886.28125 79.585938 L 886.269531 79.582031 L 886.269531 77.71875 C 886.269531 77.175781 886.457031 76.675781 886.769531 76.277344 C 887.199219 75.726562 887.867188 75.371094 888.617188 75.371094 L 891.894531 75.371094 C 893.183594 75.371094 894.238281 76.425781 894.238281 77.71875 L 894.238281 93.792969 C 894.238281 95.082031 893.183594 96.136719 891.894531 96.136719 L 888.617188 96.136719 C 887.867188 96.136719 887.199219 95.785156 886.769531 95.234375 C 886.457031 94.835938 886.269531 94.332031 886.269531 93.792969 L 886.269531 91.925781 L 886.28125 91.925781 Z M 886.269531 91.898438 " fill-opacity="1" fill-rule="evenodd"/><path fill="#000000" d="M 923.710938 103.027344 C 923.324219 103.363281 922.914062 103.671875 922.476562 103.945312 C 919.855469 105.578125 916.320312 105.632812 913.332031 105.632812 L 904.515625 105.632812 C 903.578125 105.632812 902.648438 105.253906 901.890625 104.652344 C 901.214844 104.113281 900.683594 103.398438 900.414062 102.621094 C 900.171875 101.917969 899.832031 101.238281 899.585938 100.523438 C 899.421875 100.054688 899.285156 99.566406 899.210938 99.074219 C 899.164062 98.742188 899.15625 98.40625 899.195312 98.082031 L 897.820312 98.082031 C 896.773438 98.082031 895.789062 97.597656 895.144531 96.777344 L 895.046875 96.644531 C 894.425781 97.332031 893.527344 97.765625 892.53125 97.765625 L 889.40625 97.765625 C 888.789062 97.765625 888.191406 97.597656 887.675781 97.292969 C 887.675781 103.65625 889.464844 108.664062 895.269531 110.117188 C 895.140625 110.085938 896.507812 113.4375 896.6875 114.027344 C 897.164062 115.570312 897.570312 117.390625 897.882812 119.550781 L 913.8125 119.550781 C 914.121094 117.390625 914.53125 115.570312 915.003906 114.027344 C 915.519531 112.347656 916.109375 110.992188 916.734375 109.867188 C 916.53125 109.921875 923.710938 107.835938 923.710938 103.027344 Z M 920.683594 120.355469 L 918.601562 116.398438 C 918.332031 117.390625 918.097656 118.445312 917.867188 119.605469 L 917.796875 119.9375 C 918.757812 120.0625 919.722656 120.203125 920.683594 120.355469 Z M 914.539062 118.636719 C 914.488281 118.945312 914.441406 119.253906 914.394531 119.5625 L 914.855469 119.605469 C 915.5 119.667969 916.144531 119.738281 916.789062 119.8125 L 916.742188 119.648438 C 916.261719 117.976562 916.667969 116.0625 917.445312 114.199219 L 917.09375 113.527344 L 916.320312 112.0625 C 916.03125 112.757812 915.777344 113.472656 915.558594 114.195312 C 915.113281 115.644531 914.789062 117.136719 914.539062 118.636719 Z M 914.539062 118.636719 " fill-opacity="1" fill-rule="evenodd"/><path fill="#008037" d="M 917.296875 119.492188 C 917.90625 116.433594 918.519531 113.261719 921.378906 108.609375 C 919.246094 111.691406 916.34375 116.179688 917.296875 119.492188 Z M 891.320312 117.007812 C 890.867188 114.730469 890.410156 112.367188 888.277344 108.898438 C 889.867188 111.195312 892.03125 114.542969 891.320312 117.007812 Z M 894.417969 119.492188 C 895.371094 116.179688 892.472656 111.691406 890.339844 108.609375 C 893.199219 113.261719 893.8125 116.433594 894.417969 119.492188 Z M 920.398438 117.007812 C 919.6875 114.542969 921.847656 111.195312 923.4375 108.898438 C 921.304688 112.367188 920.851562 114.730469 920.398438 117.007812 Z M 920.398438 117.007812 " fill-opacity="1" fill-rule="evenodd"/><path fill="#008037" d="M 917.457031 119.414062 L 917.324219 120.085938 L 917.164062 119.527344 C 916.675781 117.835938 917.167969 115.855469 918.054688 113.90625 C 918.929688 111.980469 920.1875 110.082031 921.257812 108.539062 L 921.261719 108.53125 L 921.496094 108.683594 C 918.683594 113.261719 918.058594 116.398438 917.457031 119.414062 Z M 917.296875 118.785156 C 917.71875 116.679688 918.222656 114.476562 919.511719 111.742188 C 919.074219 112.484375 918.660156 113.25 918.308594 114.023438 C 917.566406 115.660156 917.105469 117.320312 917.296875 118.785156 Z M 891.183594 117.035156 L 891.167969 116.960938 C 890.722656 114.714844 890.253906 112.378906 888.160156 108.972656 L 888.394531 108.816406 L 888.402344 108.828125 C 889.199219 109.980469 890.136719 111.394531 890.789062 112.832031 C 891.453125 114.292969 891.824219 115.777344 891.457031 117.046875 L 891.296875 117.605469 Z M 890.015625 111.914062 C 890.710938 113.542969 891.039062 114.925781 891.308594 116.242188 C 891.378906 115.214844 891.046875 114.078125 890.535156 112.949219 C 890.375 112.601562 890.203125 112.253906 890.015625 111.914062 Z M 894.421875 118.785156 C 894.613281 117.320312 894.152344 115.660156 893.40625 114.023438 C 893.058594 113.25 892.644531 112.484375 892.207031 111.746094 C 893.496094 114.476562 893.996094 116.679688 894.421875 118.785156 Z M 893.664062 113.90625 C 894.550781 115.855469 895.042969 117.835938 894.554688 119.527344 L 894.394531 120.085938 L 894.261719 119.417969 C 893.660156 116.402344 893.035156 113.261719 890.21875 108.683594 L 890.453125 108.527344 L 890.460938 108.539062 C 891.527344 110.082031 892.789062 111.976562 893.664062 113.90625 Z M 920.261719 117.046875 C 919.894531 115.777344 920.265625 114.292969 920.925781 112.832031 C 921.578125 111.394531 922.519531 109.980469 923.316406 108.828125 L 923.320312 108.820312 L 923.558594 108.972656 C 921.460938 112.378906 920.996094 114.714844 920.550781 116.960938 L 920.421875 117.605469 Z M 921.183594 112.949219 C 920.671875 114.078125 920.339844 115.21875 920.40625 116.242188 C 920.675781 114.925781 921.003906 113.542969 921.703125 111.914062 C 921.515625 112.253906 921.339844 112.601562 921.183594 112.949219 Z M 921.183594 112.949219 " fill-opacity="1" fill-rule="evenodd"/><g clip-path="url(#a01f7770df)"><path fill="#008037" d="M 942.929688 128.269531 C 917.828125 122.789062 892.996094 122.789062 868.132812 128.269531 C 892.707031 118.445312 917.605469 117.480469 942.929688 128.269531 Z M 942.929688 128.269531 " fill-opacity="1" fill-rule="evenodd"/></g><path fill="#008037" d="M 925.03125 88.304688 L 940.726562 91.644531 C 940.8125 91.339844 940.976562 91.054688 941.21875 90.8125 C 941.472656 90.558594 941.78125 90.390625 942.101562 90.304688 C 940.78125 85.640625 940.535156 80.722656 941.308594 75.933594 C 940.785156 75.96875 940.253906 75.789062 939.855469 75.390625 C 939.625 75.160156 939.46875 74.886719 939.382812 74.59375 L 939.566406 74.527344 C 933.652344 76.609375 927 78.042969 921.40625 78.753906 L 921.40625 79.484375 C 921.816406 79.453125 922.175781 79.457031 922.714844 79.652344 L 924.390625 80.261719 C 925.917969 80.816406 925.503906 85.066406 925.242188 86.808594 C 925.167969 87.296875 925.101562 87.796875 925.027344 88.300781 Z M 933.582031 85.203125 C 932.21875 85.335938 931.007812 84.332031 930.878906 82.96875 C 930.75 81.605469 931.75 80.394531 933.113281 80.265625 C 934.773438 80.105469 936.09375 81.597656 935.785156 83.203125 C 935.582031 84.257812 934.707031 85.097656 933.582031 85.203125 Z M 933.582031 85.203125 " fill-opacity="1" fill-rule="evenodd"/><path fill="#008037" d="M 933.289062 82.832031 L 933.359375 84.113281 C 932.71875 84.140625 932.707031 83.503906 932.6875 83.457031 C 932.683594 83.441406 932.613281 83.390625 932.609375 83.550781 C 932.605469 83.671875 932.585938 84.160156 932.652344 84.214844 C 932.78125 84.316406 933.1875 84.324219 933.371094 84.3125 L 933.402344 84.828125 L 933.679688 84.816406 L 933.648438 84.265625 C 934.425781 84.046875 934.597656 83.164062 933.929688 82.574219 L 933.539062 82.285156 L 933.480469 81.195312 C 934.03125 81.175781 934.0625 81.683594 934.074219 81.703125 C 934.082031 81.71875 934.15625 81.773438 934.144531 81.59375 L 934.117188 81.054688 L 933.46875 81 L 933.441406 80.484375 L 933.164062 80.5 L 933.191406 81.050781 C 932.488281 81.265625 932.375 82.007812 932.9375 82.550781 C 933.023438 82.632812 933.132812 82.71875 933.257812 82.808594 Z M 933.203125 81.261719 L 933.25 82.074219 C 932.917969 81.804688 932.886719 81.453125 933.203125 81.261719 Z M 933.578125 83.039062 C 934.003906 83.378906 934.023438 83.851562 933.632812 84.046875 Z M 933.578125 83.039062 " fill-opacity="1" fill-rule="evenodd"/><path fill="#008037" d="M 877.890625 88.28125 L 877.976562 89.824219 C 877.203125 89.863281 877.191406 89.09375 877.164062 89.039062 C 877.15625 89.015625 877.074219 88.957031 877.070312 89.148438 C 877.066406 89.296875 877.042969 89.882812 877.125 89.949219 C 877.277344 90.074219 877.765625 90.082031 877.988281 90.066406 L 878.023438 90.691406 L 878.359375 90.671875 L 878.320312 90.011719 C 879.257812 89.75 879.464844 88.683594 878.660156 87.972656 L 878.191406 87.621094 L 878.121094 86.3125 C 878.785156 86.285156 878.820312 86.902344 878.835938 86.925781 C 878.84375 86.941406 878.933594 87.007812 878.921875 86.789062 L 878.886719 86.140625 L 878.105469 86.078125 L 878.074219 85.453125 L 877.738281 85.472656 L 877.773438 86.140625 C 876.925781 86.398438 876.785156 87.292969 877.464844 87.945312 C 877.570312 88.042969 877.699219 88.148438 877.855469 88.253906 Z M 877.785156 86.394531 L 877.839844 87.371094 C 877.445312 87.042969 877.40625 86.621094 877.785156 86.394531 Z M 878.242188 88.53125 C 878.75 88.945312 878.777344 89.511719 878.308594 89.746094 Z M 878.242188 88.53125 " fill-opacity="1" fill-rule="evenodd"/><g fill="#000000" fill-opacity="1"><g transform="translate(868.420039, 157.622505)"><g><path d="M 8.5625 -11.109375 L 8.5625 -13.984375 C 8.5625 -14.390625 8.328125 -14.59375 7.859375 -14.59375 L 5.875 -14.59375 L 5.875 -10.5 L 7.859375 -10.5 C 8.328125 -10.5 8.5625 -10.703125 8.5625 -11.109375 Z M 8.5625 -3.796875 L 8.5625 -6.703125 C 8.5625 -7.109375 8.328125 -7.3125 7.859375 -7.3125 L 5.875 -7.3125 L 5.875 -3.1875 L 7.859375 -3.1875 C 8.328125 -3.1875 8.5625 -3.390625 8.5625 -3.796875 Z M 1.109375 -17.78125 L 9.25 -17.78125 C 11.957031 -17.78125 13.3125 -16.632812 13.3125 -14.34375 L 13.3125 -12.078125 C 13.3125 -10.460938 12.867188 -9.414062 11.984375 -8.9375 C 12.503906 -8.71875 12.851562 -8.378906 13.03125 -7.921875 C 13.21875 -7.472656 13.3125 -6.863281 13.3125 -6.09375 L 13.3125 -3.4375 C 13.3125 -1.144531 11.957031 0 9.25 0 L 1.109375 0 Z M 1.109375 -17.78125 "/></g></g></g><g fill="#000000" fill-opacity="1"><g transform="translate(882.702928, 157.622505)"><g><path d="M 7.53125 -13.8125 L 12.15625 -13.8125 L 12.15625 0 L 7.453125 0 L 7.453125 -1.5 C 7.097656 -0.5 6.285156 0 5.015625 0 L 4.515625 0 C 2.054688 0 0.828125 -1.144531 0.828125 -3.4375 L 0.828125 -10.390625 C 0.828125 -12.671875 2.054688 -13.8125 4.515625 -13.8125 L 5.015625 -13.8125 C 6.429688 -13.8125 7.269531 -13.222656 7.53125 -12.046875 Z M 6.234375 -3.46875 L 6.703125 -3.46875 C 7.203125 -3.46875 7.453125 -3.742188 7.453125 -4.296875 L 7.453125 -9.53125 C 7.453125 -10.082031 7.203125 -10.359375 6.703125 -10.359375 L 6.234375 -10.359375 C 5.765625 -10.359375 5.53125 -10.15625 5.53125 -9.75 L 5.53125 -4.0625 C 5.53125 -3.664062 5.765625 -3.46875 6.234375 -3.46875 Z M 6.234375 -3.46875 "/></g></g></g><g fill="#000000" fill-opacity="1"><g transform="translate(895.961656, 157.622505)"><g><path d="M 7.453125 -18.515625 L 12.15625 -18.515625 L 12.15625 0 L 7.53125 0 L 7.53125 -1.765625 C 7.269531 -0.585938 6.429688 0 5.015625 0 L 4.515625 0 C 2.054688 0 0.828125 -1.144531 0.828125 -3.4375 L 0.828125 -10.390625 C 0.828125 -12.671875 2.054688 -13.8125 4.515625 -13.8125 L 5.015625 -13.8125 C 6.285156 -13.8125 7.097656 -13.316406 7.453125 -12.328125 Z M 6.234375 -3.46875 L 6.703125 -3.46875 C 7.203125 -3.46875 7.453125 -3.742188 7.453125 -4.296875 L 7.453125 -9.53125 C 7.453125 -10.082031 7.203125 -10.359375 6.703125 -10.359375 L 6.234375 -10.359375 C 5.765625 -10.359375 5.53125 -10.15625 5.53125 -9.75 L 5.53125 -4.0625 C 5.53125 -3.664062 5.765625 -3.46875 6.234375 -3.46875 Z M 6.234375 -3.46875 "/></g></g></g><g fill="#000000" fill-opacity="1"><g transform="translate(909.220383, 157.622505)"><g><path d="M 4.15625 3.578125 L 1.828125 3.578125 L 1.828125 0.171875 L 3.875 0.171875 C 4.320312 0.171875 4.671875 0.0976562 4.921875 -0.046875 C 5.179688 -0.203125 5.40625 -0.554688 5.59375 -1.109375 L 3.796875 -1.109375 L 0 -13.8125 L 4.921875 -13.8125 L 6.625 -5.40625 L 8.109375 -13.8125 L 12.84375 -13.8125 L 9.390625 -0.28125 C 8.992188 1 8.398438 1.960938 7.609375 2.609375 C 6.816406 3.253906 5.664062 3.578125 4.15625 3.578125 Z M 4.15625 3.578125 "/></g></g></g><g fill="#000000" fill-opacity="1"><g transform="translate(922.063915, 157.622505)"><g><path d="M 4.90625 -13.8125 L 8.28125 -13.8125 C 10.988281 -13.8125 12.34375 -12.671875 12.34375 -10.390625 L 12.34375 -5.671875 L 5.28125 -5.671875 L 5.28125 -3.84375 C 5.28125 -3.4375 5.515625 -3.234375 5.984375 -3.234375 L 7.203125 -3.234375 C 7.660156 -3.234375 7.890625 -3.457031 7.890625 -3.90625 L 7.890625 -4.671875 L 12.34375 -4.671875 L 12.34375 -3.4375 C 12.34375 -1.144531 10.988281 0 8.28125 0 L 4.90625 0 C 2.1875 0 0.828125 -1.144531 0.828125 -3.4375 L 0.828125 -10.390625 C 0.828125 -12.671875 2.1875 -13.8125 4.90625 -13.8125 Z M 5.28125 -8.21875 L 7.890625 -8.21875 L 7.890625 -9.96875 C 7.890625 -10.375 7.660156 -10.578125 7.203125 -10.578125 L 5.984375 -10.578125 C 5.515625 -10.578125 5.28125 -10.375 5.28125 -9.96875 Z M 5.28125 -8.21875 "/></g></g></g><g fill="#000000" fill-opacity="1"><g transform="translate(935.101203, 157.622505)"><g><path d="M 8.109375 -10.359375 L 6.375 -10.359375 L 6.375 -4.0625 C 6.375 -3.664062 6.601562 -3.46875 7.0625 -3.46875 L 8.078125 -3.46875 L 8.078125 0 L 5.734375 0 C 3.015625 0 1.65625 -1.144531 1.65625 -3.4375 L 1.65625 -10.359375 L 0.140625 -10.359375 L 0.140625 -13.8125 L 1.65625 -13.8125 L 1.65625 -16.53125 L 6.375 -16.53125 L 6.375 -13.8125 L 8.109375 -13.8125 Z M 8.109375 -10.359375 "/></g></g></g></svg>